<!DOCTYPE svg PUBLIC "-//W3C//DTD SVG 1.1//EN" "http://www.w3.org/Graphics/SVG/1.1/DTD/svg11.dtd">
<!-- Uploaded to: SVG Repo, www.svgrepo.com, Transformed by: SVG Repo Mixer Tools -->
<svg width="800px" height="800px" viewBox="-6 -6 36.00 36.00" fill="none" xmlns="http://www.w3.org/2000/svg" stroke="#fff" stroke-width="0.00024000000000000003">
<g id="SVGRepo_bgCarrier" stroke-width="0">
<rect x="-6" y="-6" width="36.00" height="36.00" rx="18" fill="#07c" strokewidth="0"/>
</g>
<g id="SVGRepo_tracerCarrier" stroke-linecap="round" stroke-linejoin="round"/>
<g id="SVGRepo_iconCarrier"> <path fill-rule="evenodd" clip-rule="evenodd" d="M8 1C9.65685 1 11 2.34315 11 4V8C11 9.65685 9.65685 11 8 11H4C2.34315 11 1 9.65685 1 8V4C1 2.34315 2.34315 1 4 1H8ZM8 3C8.55228 3 9 3.44772 9 4V8C9 8.55228 8.55228 9 8 9H4C3.44772 9 3 8.55228 3 8V4C3 3.44772 3.44772 3 4 3H8Z" fill="#fff"/> <path fill-rule="evenodd" clip-rule="evenodd" d="M8 13C9.65685 13 11 14.3431 11 16V20C11 21.6569 9.65685 23 8 23H4C2.34315 23 1 21.6569 1 20V16C1 14.3431 2.34315 13 4 13H8ZM8 15C8.55228 15 9 15.4477 9 16V20C9 20.5523 8.55228 21 8 21H4C3.44772 21 3 20.5523 3 20V16C3 15.4477 3.44772 15 4 15H8Z" fill="#fff"/> <path fill-rule="evenodd" clip-rule="evenodd" d="M23 4C23 2.34315 21.6569 1 20 1H16C14.3431 1 13 2.34315 13 4V8C13 9.65685 14.3431 11 16 11H20C21.6569 11 23 9.65685 23 8V4ZM21 4C21 3.44772 20.5523 3 20 3H16C15.4477 3 15 3.44772 15 4V8C15 8.55228 15.4477 9 16 9H20C20.5523 9 21 8.55228 21 8V4Z" fill="#fff"/> <path fill-rule="evenodd" clip-rule="evenodd" d="M20 13C21.6569 13 23 14.3431 23 16V20C23 21.6569 21.6569 23 20 23H16C14.3431 23 13 21.6569 13 20V16C13 14.3431 14.3431 13 16 13H20ZM20 15C20.5523 15 21 15.4477 21 16V20C21 20.5523 20.5523 21 20 21H16C15.4477 21 15 20.5523 15 20V16C15 15.4477 15.4477 15 16 15H20Z" fill="#fff"/> </g>
</svg>