<!DOCTYPE svg PUBLIC "-//W3C//DTD SVG 1.1//EN" "http://www.w3.org/Graphics/SVG/1.1/DTD/svg11.dtd">
<!-- Uploaded to: SVG Repo, www.svgrepo.com, Transformed by: SVG Repo Mixer Tools -->
<svg fill="#fff" xmlns="http://www.w3.org/2000/svg" width="800px" height="800px" viewBox="-16.12 -16.12 84.24 84.24" enable-background="new 0 0 52 52" xml:space="preserve" stroke="#fff">
<g id="SVGRepo_bgCarrier" stroke-width="0">
<rect x="-16.12" y="-16.12" width="84.24" height="84.24" rx="42.12" fill="#07c" strokewidth="0"/>
</g>
<g id="SVGRepo_tracerCarrier" stroke-linecap="round" stroke-linejoin="round"/>
<g id="SVGRepo_iconCarrier"> <path d="M37.1,4v13.6c0,1-0.8,1.9-1.9,1.9H13.9c-1,0-1.9-0.8-1.9-1.9V4H8C5.8,4,4,5.8,4,8v36c0,2.2,1.8,4,4,4h36 c2.2,0,4-1.8,4-4V11.2L40.8,4H37.1z M44.1,42.1c0,1-0.8,1.9-1.9,1.9H9.9c-1,0-1.9-0.8-1.9-1.9V25.4c0-1,0.8-1.9,1.9-1.9h32.3 c1,0,1.9,0.8,1.9,1.9V42.1z"/> <g> <path d="M24.8,13.6c0,1,0.8,1.9,1.9,1.9h4.6c1,0,1.9-0.8,1.9-1.9V4h-8.3L24.8,13.6L24.8,13.6z"/> </g> </g>
</svg>